<svg viewBox="0 0 59 59" xmlns="http://www.w3.org/2000/svg" xmlns:xlink="http://www.w3.org/1999/xlink" width="59.000000" height="59.000000" fill="none">
	<rect id="反馈 1" width="59.000000" height="59.000000" x="0.000000" y="0.000000" />
	<path id="矢量 22" d="M44.3232 53.1856L12.4079 53.1856C9.47278 53.1856 7.09033 50.8032 7.09033 47.868L7.09033 12.4172C7.09033 9.48205 9.47278 7.09961 12.4079 7.09961L37.2235 7.09961C38.2051 7.09961 38.996 7.89058 38.996 8.87215C38.996 9.85372 38.2051 10.6447 37.2235 10.6447L12.4079 10.6447C11.4359 10.6447 10.6354 11.4452 10.6354 12.4172L10.6354 47.868C10.6354 48.8496 11.4359 49.6406 12.4079 49.6406L44.3136 49.6406C45.2952 49.6406 46.0862 48.8496 46.0862 47.868L46.0862 19.4979C46.0862 18.5163 46.8772 17.7253 47.8587 17.7253C48.8403 17.7253 49.6313 18.5163 49.6313 19.4979L49.6313 47.8585C49.6408 50.7937 47.2488 53.1856 44.3232 53.1856Z" fill="rgb(185,89,33)" fill-rule="nonzero" />
	<path id="矢量 23" d="M33.9071 24.8156C33.4497 24.8156 33.0018 24.6441 32.6492 24.2915C31.9535 23.5958 31.9535 22.4808 32.6492 21.7851L50.2698 4.1741C50.9654 3.47843 52.0804 3.47843 52.7761 4.1741C53.4718 4.86977 53.4718 5.98476 52.7761 6.68043L35.1555 24.301C34.8125 24.6441 34.355 24.8156 33.9071 24.8156Z" fill="rgb(185,89,33)" fill-rule="nonzero" />
	<path id="矢量 24" d="M26.5879 24.8156L15.9527 24.8156C14.9711 24.8156 14.1802 24.0246 14.1802 23.043C14.1802 22.0615 14.9711 21.2705 15.9527 21.2705L26.5879 21.2705C27.5695 21.2705 28.3605 22.0615 28.3605 23.043C28.3605 24.0246 27.5695 24.8156 26.5879 24.8156Z" fill="rgb(185,89,33)" fill-rule="nonzero" />
	<path id="矢量 25" d="M37.2327 35.4508L15.9527 35.4508C14.9711 35.4508 14.1802 34.6599 14.1802 33.6783C14.1802 32.6967 14.9711 31.9058 15.9527 31.9058L37.2232 31.9058C38.2047 31.9058 38.9957 32.6967 38.9957 33.6783C38.9957 34.6599 38.2047 35.4508 37.2327 35.4508Z" fill="rgb(185,89,33)" fill-rule="nonzero" />
</svg>
