<svg viewBox="0 0 34 36" xmlns="http://www.w3.org/2000/svg" xmlns:xlink="http://www.w3.org/1999/xlink" width="34.000000" height="36.000000" fill="none" customFrame="#000000">
	<path id="我的" d="M17 19.9444C11.5011 19.9444 7.10005 15.5675 7.10005 10.2222C7.10005 4.87694 11.5011 0.5 17 0.5C22.4989 0.5 26.9 4.87694 26.9 10.2222C26.9 15.5675 22.4989 19.9444 17 19.9444ZM17 18C21.2218 18 24.7 14.5418 24.7 10.2222C24.7 5.90263 21.2218 2.44444 17 2.44444C12.7782 2.44444 9.29998 5.90263 9.29998 10.2222C9.29998 14.5418 12.7782 18 17 18ZM0.5 28.6944C0.5 24.9332 3.95208 21.8851 8.20772 21.8889L25.7923 21.8889C30.0472 21.8889 33.5 24.9397 33.5 28.6944C33.5 30.5006 32.6877 32.2326 31.242 33.5091C29.7964 34.7855 27.8358 35.5018 25.7923 35.5L8.20772 35.5C3.95289 35.5 0.5 32.4492 0.5 28.6944ZM2.69999 28.6944C2.69999 31.3748 5.16844 33.5555 8.20772 33.5555L25.7923 33.5555C27.2524 33.5573 28.6533 33.046 29.6864 32.1341C30.7195 31.2223 31.3 29.9848 31.3 28.6944C31.3 26.014 28.8316 23.8333 25.7923 23.8333L8.20772 23.8333C6.74766 23.8315 5.34677 24.3429 4.31366 25.2547C3.2805 26.1665 2.69999 27.404 2.69999 28.6944Z" fill="rgb(185,89,33)" fill-rule="nonzero" />
	<path id="我的" d="M7.10005 10.2222C7.10005 4.87694 11.5011 0.5 17 0.5C22.4989 0.5 26.9 4.87694 26.9 10.2222C26.9 15.5675 22.4989 19.9444 17 19.9444C11.5011 19.9444 7.10005 15.5675 7.10005 10.2222ZM24.7 10.2222C24.7 5.90263 21.2218 2.44444 17 2.44444C12.7782 2.44444 9.29998 5.90263 9.29998 10.2222C9.29998 14.5418 12.7782 18 17 18C21.2218 18 24.7 14.5418 24.7 10.2222ZM8.20772 21.8889L25.7923 21.8889C30.0472 21.8889 33.5 24.9397 33.5 28.6944C33.5 30.5006 32.6877 32.2326 31.242 33.5091C29.7964 34.7855 27.8358 35.5018 25.7923 35.5L8.20772 35.5C3.95289 35.5 0.5 32.4492 0.5 28.6944C0.5 24.9332 3.95208 21.8851 8.20772 21.8889ZM8.20772 33.5555L25.7923 33.5555C27.2524 33.5573 28.6533 33.046 29.6864 32.1341C30.7195 31.2223 31.3 29.9848 31.3 28.6944C31.3 26.014 28.8316 23.8333 25.7923 23.8333L8.20772 23.8333C6.74766 23.8315 5.34677 24.3429 4.31366 25.2547C3.2805 26.1665 2.69999 27.404 2.69999 28.6944C2.69999 31.3748 5.16844 33.5555 8.20772 33.5555Z" fill-rule="nonzero" stroke="rgb(112,112,112)" stroke-opacity="0" stroke-width="1.000000" />
</svg>
